<svg xmlns="http://www.w3.org/2000/svg" xmlns:xlink="http://www.w3.org/1999/xlink" width="500" zoomAndPan="magnify" viewBox="0 0 375 374.999991" height="500" preserveAspectRatio="xMidYMid meet" version="1.0"><defs><clipPath id="4379c1ad86"><path d="M 110.402344 150.351562 L 177 150.351562 L 177 239.527344 L 110.402344 239.527344 Z M 110.402344 150.351562 " clip-rule="nonzero"/></clipPath><clipPath id="0dea781e7c"><path d="M 107.417969 131.460938 L 180.914062 131.460938 L 180.914062 155.105469 L 107.417969 155.105469 Z M 107.417969 131.460938 " clip-rule="nonzero"/></clipPath><clipPath id="f7cf6feafa"><path d="M 107.417969 131.460938 L 180.914062 131.460938 L 180.914062 146.433594 L 107.417969 146.433594 Z M 107.417969 131.460938 " clip-rule="nonzero"/></clipPath><clipPath id="31a446b459"><path d="M 274.089844 219.140625 L 301.257812 219.140625 L 301.257812 239.617188 L 274.089844 239.617188 Z M 274.089844 219.140625 " clip-rule="nonzero"/></clipPath><clipPath id="259d2c83d3"><path d="M 258 91.128906 L 285 91.128906 L 285 113 L 258 113 Z M 258 91.128906 " clip-rule="nonzero"/></clipPath><clipPath id="a4779cc256"><path d="M 170.011719 103 L 291 103 L 291 174 L 170.011719 174 Z M 170.011719 103 " clip-rule="nonzero"/></clipPath></defs><path fill="#d17333" d="M 173.585938 122.046875 C 171.449219 121.875 169.859375 120.019531 170.027344 117.898438 C 170.195312 115.773438 172.0625 114.191406 174.199219 114.355469 C 176.332031 114.527344 177.921875 116.382812 177.753906 118.503906 C 177.585938 120.628906 175.71875 122.214844 173.585938 122.046875 " fill-opacity="1" fill-rule="nonzero"/><g clip-path="url(#4379c1ad86)"><path fill="#ff554d" d="M 176.117188 150.367188 L 143.726562 150.507812 L 111.339844 150.367188 C 108.820312 177 111.835938 205.253906 118.929688 234.707031 C 118.929688 241.136719 168.527344 241.136719 168.527344 234.707031 C 175.621094 205.253906 178.632812 177 176.117188 150.367188 " fill-opacity="1" fill-rule="nonzero"/></g><path fill="#ffffff" d="M 171.042969 224.679688 C 172.753906 216.632812 174.136719 208.679688 175.164062 200.832031 C 141.902344 197.863281 121.332031 180.242188 110.398438 159.71875 C 109.757812 173.40625 110.5 187.496094 112.453125 201.9375 C 130.863281 216.789062 163.128906 203.957031 171.042969 224.679688 " fill-opacity="1" fill-rule="nonzero"/><path fill="#ffffff" d="M 170.359375 226.695312 C 170.515625 225.972656 170.667969 225.253906 170.820312 224.535156 C 165.1875 214.746094 152.480469 213.464844 140.152344 212.230469 C 129.984375 211.207031 119.488281 210.152344 113.058594 204.347656 C 113.160156 205.035156 113.261719 205.722656 113.363281 206.414062 C 120.148438 211.617188 130.226562 212.632812 140.011719 213.613281 C 153.144531 214.933594 165.570312 216.1875 170.359375 226.695312 " fill-opacity="1" fill-rule="nonzero"/><path fill="#000000" d="M 150.804688 187.222656 C 150.457031 189.601562 152.113281 191.808594 154.503906 192.152344 C 156.894531 192.496094 159.113281 190.847656 159.460938 188.472656 C 159.804688 186.09375 158.148438 183.886719 155.761719 183.542969 C 153.371094 183.199219 151.152344 184.84375 150.804688 187.222656 " fill-opacity="1" fill-rule="nonzero"/><path fill="#ffffff" d="M 154.234375 186.9375 C 154.089844 187.914062 154.773438 188.820312 155.753906 188.964844 C 156.738281 189.105469 157.648438 188.429688 157.792969 187.449219 C 157.933594 186.472656 157.253906 185.566406 156.269531 185.421875 C 155.289062 185.28125 154.375 185.960938 154.234375 186.9375 " fill-opacity="1" fill-rule="nonzero"/><path fill="#000000" d="M 127.996094 187.222656 C 127.648438 189.601562 129.308594 191.808594 131.695312 192.152344 C 134.085938 192.496094 136.304688 190.847656 136.652344 188.472656 C 136.996094 186.09375 135.339844 183.886719 132.949219 183.542969 C 130.5625 183.199219 128.34375 184.84375 127.996094 187.222656 " fill-opacity="1" fill-rule="nonzero"/><path fill="#ffffff" d="M 131.425781 186.9375 C 131.28125 187.914062 131.964844 188.820312 132.945312 188.964844 C 133.929688 189.105469 134.839844 188.429688 134.984375 187.449219 C 135.125 186.472656 134.445312 185.566406 133.460938 185.421875 C 132.480469 185.28125 131.566406 185.960938 131.425781 186.9375 " fill-opacity="1" fill-rule="nonzero"/><path fill="#f0edf2" d="M 168.523438 234.78125 C 168.523438 234.78125 168.523438 234.78125 168.523438 234.777344 C 168.523438 234.777344 168.523438 234.78125 168.523438 234.78125 M 168.523438 234.773438 L 168.523438 234.773438 M 168.523438 234.769531 C 168.523438 234.769531 168.527344 234.769531 168.527344 234.765625 C 168.527344 234.769531 168.523438 234.769531 168.523438 234.769531 M 168.527344 234.765625 C 168.527344 234.765625 168.527344 234.765625 168.527344 234.761719 C 168.527344 234.765625 168.527344 234.765625 168.527344 234.765625 M 168.527344 234.757812 L 168.527344 234.757812 M 168.527344 234.75 C 168.527344 234.746094 168.527344 234.746094 168.527344 234.746094 C 168.527344 234.746094 168.527344 234.746094 168.527344 234.75 M 168.527344 234.742188 L 168.527344 234.742188 M 168.527344 234.738281 L 168.527344 234.738281 M 168.527344 234.734375 C 168.527344 234.730469 168.527344 234.730469 168.527344 234.730469 C 168.527344 234.730469 168.527344 234.730469 168.527344 234.734375 M 168.527344 234.726562 L 168.527344 234.726562 M 168.527344 234.722656 L 168.527344 234.722656 M 168.527344 234.71875 C 168.527344 234.71875 168.527344 234.714844 168.527344 234.714844 C 168.527344 234.714844 168.527344 234.71875 168.527344 234.71875 M 168.527344 234.710938 L 168.527344 234.710938 M 168.527344 234.707031 C 169.371094 231.207031 170.15625 227.726562 170.878906 224.261719 C 170.15625 227.726562 169.371094 231.207031 168.527344 234.707031 M 174.878906 200.804688 C 177.089844 183.769531 177.632812 167.226562 176.199219 151.261719 C 177.632812 167.226562 177.089844 183.773438 174.878906 200.804688 " fill-opacity="1" fill-rule="nonzero"/><path fill="#f04f49" d="M 159.070312 238.589844 C 159.921875 231.636719 160.675781 224.738281 161.328125 217.898438 C 165.273438 219.738281 168.433594 222.46875 170.359375 226.695312 C 170.515625 225.972656 170.667969 225.253906 170.820312 224.535156 C 168.625 220.722656 165.359375 218.203125 161.460938 216.472656 C 161.515625 215.875 161.570312 215.285156 161.625 214.691406 C 165.703125 216.589844 168.949219 219.519531 170.878906 224.261719 C 170.15625 227.726562 169.371094 231.207031 168.527344 234.707031 C 168.527344 234.707031 168.527344 234.710938 168.527344 234.710938 C 168.527344 234.714844 168.527344 234.714844 168.527344 234.714844 C 168.527344 234.714844 168.527344 234.71875 168.527344 234.71875 C 168.527344 234.71875 168.527344 234.71875 168.527344 234.722656 C 168.527344 234.722656 168.527344 234.726562 168.527344 234.726562 C 168.527344 234.730469 168.527344 234.730469 168.527344 234.730469 C 168.527344 234.730469 168.527344 234.730469 168.527344 234.734375 C 168.527344 234.734375 168.527344 234.734375 168.527344 234.738281 C 168.527344 234.738281 168.527344 234.738281 168.527344 234.742188 C 168.527344 234.742188 168.527344 234.746094 168.527344 234.746094 C 168.527344 234.746094 168.527344 234.746094 168.527344 234.75 C 168.527344 234.75 168.527344 234.75 168.527344 234.753906 C 168.527344 234.753906 168.527344 234.757812 168.527344 234.757812 C 168.527344 234.761719 168.527344 234.761719 168.527344 234.761719 C 168.527344 234.765625 168.527344 234.765625 168.527344 234.765625 C 168.527344 234.769531 168.523438 234.769531 168.523438 234.769531 C 168.523438 234.769531 168.523438 234.773438 168.523438 234.773438 C 168.523438 234.777344 168.523438 234.777344 168.523438 234.777344 C 168.523438 234.78125 168.523438 234.78125 168.523438 234.78125 C 168.523438 234.78125 168.523438 234.78125 168.523438 234.785156 C 168.523438 234.792969 168.523438 234.800781 168.523438 234.808594 C 168.523438 234.8125 168.523438 234.8125 168.523438 234.816406 C 168.367188 236.554688 164.539062 237.8125 159.070312 238.589844 M 174.878906 200.804688 C 170.675781 200.417969 166.671875 199.796875 162.867188 198.964844 C 163.898438 183.582031 164.355469 168.527344 164.148438 153.851562 C 169.128906 153.199219 173.273438 152.308594 176.199219 151.261719 C 177.632812 167.226562 177.089844 183.769531 174.878906 200.804688 " fill-opacity="1" fill-rule="nonzero"/><path fill="#f0ecf2" d="M 170.878906 224.261719 C 168.949219 219.519531 165.703125 216.589844 161.625 214.691406 C 162.101562 209.414062 162.519531 204.171875 162.867188 198.964844 C 166.671875 199.796875 170.675781 200.417969 174.878906 200.804688 C 173.878906 208.527344 172.535156 216.347656 170.878906 224.261719 " fill-opacity="1" fill-rule="nonzero"/><path fill="#f0ecf2" d="M 170.359375 226.695312 C 168.433594 222.46875 165.273438 219.738281 161.328125 217.898438 C 161.371094 217.425781 161.417969 216.945312 161.460938 216.472656 C 165.359375 218.203125 168.625 220.722656 170.820312 224.535156 C 170.667969 225.253906 170.515625 225.972656 170.359375 226.695312 " fill-opacity="1" fill-rule="nonzero"/><path fill="#f0edf2" d="M 119.015625 235.160156 C 119.015625 235.160156 119.015625 235.15625 119.011719 235.15625 C 119.015625 235.15625 119.015625 235.160156 119.015625 235.160156 M 119.011719 235.152344 L 119.011719 235.152344 M 119.011719 235.148438 C 118.957031 235.003906 118.929688 234.859375 118.929688 234.707031 C 116.277344 223.6875 114.195312 212.839844 112.757812 202.179688 C 114.195312 212.839844 116.277344 223.6875 118.929688 234.707031 C 118.929688 234.859375 118.957031 235.003906 119.011719 235.148438 " fill-opacity="1" fill-rule="nonzero"/><path fill="#f04f49" d="M 128.386719 238.589844 C 123.289062 237.867188 119.617188 236.722656 119.015625 235.164062 C 119.015625 235.160156 119.015625 235.160156 119.015625 235.160156 C 119.015625 235.160156 119.015625 235.15625 119.011719 235.15625 C 119.011719 235.15625 119.011719 235.15625 119.011719 235.152344 C 119.011719 235.152344 119.011719 235.152344 119.011719 235.148438 C 118.957031 235.003906 118.929688 234.859375 118.929688 234.707031 C 116.277344 223.6875 114.195312 212.839844 112.757812 202.179688 C 116.480469 205.097656 120.753906 206.917969 125.269531 208.128906 C 125.320312 208.796875 125.378906 209.464844 125.433594 210.136719 C 120.644531 209.019531 116.324219 207.296875 113.058594 204.347656 C 113.160156 205.035156 113.261719 205.722656 113.363281 206.414062 C 116.753906 209.015625 120.96875 210.570312 125.558594 211.59375 C 126.324219 220.492188 127.273438 229.492188 128.386719 238.589844 M 123.53125 177.714844 C 118.292969 172.375 114.03125 166.433594 110.660156 160.210938 C 110.796875 157.097656 111.003906 154.011719 111.285156 150.941406 C 114.070312 152.0625 118.226562 153.027344 123.308594 153.734375 C 123.195312 161.621094 123.273438 169.617188 123.53125 177.714844 " fill-opacity="1" fill-rule="nonzero"/><path fill="#f0ecf2" d="M 125.269531 208.128906 C 120.753906 206.917969 116.480469 205.097656 112.757812 202.179688 C 110.824219 187.828125 110.0625 173.820312 110.660156 160.210938 C 114.03125 166.433594 118.292969 172.375 123.53125 177.714844 C 123.847656 187.703125 124.433594 197.84375 125.269531 208.128906 " fill-opacity="1" fill-rule="nonzero"/><path fill="#f0ecf2" d="M 125.558594 211.59375 C 120.96875 210.570312 116.753906 209.015625 113.363281 206.414062 C 113.261719 205.722656 113.160156 205.035156 113.058594 204.347656 C 116.324219 207.296875 120.644531 209.019531 125.433594 210.136719 C 125.476562 210.621094 125.515625 211.109375 125.558594 211.59375 " fill-opacity="1" fill-rule="nonzero"/><g clip-path="url(#0dea781e7c)"><path fill="#edf4ed" d="M 144.167969 131.511719 C 123.871094 131.511719 107.417969 134.835938 107.417969 138.9375 L 107.417969 147.621094 C 107.417969 151.722656 123.871094 155.046875 144.167969 155.046875 C 164.460938 155.046875 180.917969 151.722656 180.917969 147.621094 L 180.917969 138.9375 C 180.917969 134.835938 164.460938 131.511719 144.167969 131.511719 " fill-opacity="1" fill-rule="nonzero"/><path fill="#dfe3e1" d="M 144.167969 155.046875 C 136.421875 155.046875 129.234375 154.5625 123.308594 153.734375 C 118.226562 153.027344 114.070312 152.0625 111.285156 150.941406 C 108.8125 149.941406 107.417969 148.8125 107.417969 147.621094 L 107.417969 138.9375 C 107.417969 135.160156 121.367188 132.042969 139.421875 131.570312 C 121.367188 132.042969 107.417969 135.160156 107.417969 138.9375 C 107.417969 143.039062 123.871094 146.363281 144.167969 146.363281 C 164.460938 146.363281 180.917969 143.039062 180.917969 138.9375 L 180.917969 147.621094 C 180.917969 148.945312 179.203125 150.1875 176.199219 151.261719 C 173.273438 152.308594 169.128906 153.199219 164.148438 153.851562 C 158.398438 154.609375 151.535156 155.046875 144.167969 155.046875 M 180.917969 138.9375 C 180.917969 135.171875 167.0625 132.0625 149.101562 131.578125 C 167.0625 132.0625 180.917969 135.171875 180.917969 138.9375 " fill-opacity="1" fill-rule="nonzero"/></g><g clip-path="url(#f7cf6feafa)"><path fill="#edf4ed" d="M 180.917969 138.9375 C 180.917969 143.039062 164.460938 146.363281 144.167969 146.363281 C 123.871094 146.363281 107.417969 143.039062 107.417969 138.9375 C 107.417969 134.835938 123.871094 131.511719 144.167969 131.511719 C 164.460938 131.511719 180.917969 134.835938 180.917969 138.9375 " fill-opacity="1" fill-rule="nonzero"/></g><path fill="#ffca00" d="M 149.101562 138.9375 C 149.101562 141.410156 139.421875 141.410156 139.421875 138.9375 L 139.421875 92.285156 C 139.421875 90.71875 141.121094 89.726562 142.496094 90.492188 L 147.273438 93.144531 C 148.402344 93.773438 149.101562 94.960938 149.101562 96.246094 L 149.101562 138.9375 " fill-opacity="1" fill-rule="nonzero"/><path fill="#ff554d" d="M 139.421875 101.019531 C 142.476562 102.910156 145.699219 104.613281 149.101562 106.121094 L 149.101562 101.285156 C 145.753906 99.691406 142.527344 97.859375 139.421875 95.765625 L 139.421875 101.019531 " fill-opacity="1" fill-rule="nonzero"/><path fill="#ff554d" d="M 149.101562 131.589844 C 145.753906 130 142.527344 128.164062 139.421875 126.074219 L 139.421875 131.328125 C 142.476562 133.21875 145.699219 134.917969 149.101562 136.425781 L 149.101562 131.589844 " fill-opacity="1" fill-rule="nonzero"/><path fill="#ff554d" d="M 149.101562 116.4375 C 145.753906 114.84375 142.527344 113.011719 139.421875 110.917969 L 139.421875 116.175781 C 142.476562 118.066406 145.699219 119.765625 149.101562 121.273438 L 149.101562 116.4375 " fill-opacity="1" fill-rule="nonzero"/><path fill="#ff554d" d="M 148.605469 204.117188 C 148.960938 206.699219 147.433594 209.042969 145.195312 209.347656 C 142.957031 209.652344 140.851562 207.804688 140.496094 205.222656 C 140.140625 202.636719 141.667969 200.296875 143.90625 199.992188 C 146.148438 199.6875 148.25 201.53125 148.605469 204.117188 " fill-opacity="1" fill-rule="nonzero"/><path fill="#f94646" d="M 142.726562 202.46875 C 142.726562 202.46875 143.941406 203.53125 144.28125 204.269531 C 144.695312 205.175781 144.914062 205.816406 145.03125 206.25 C 145.089844 206.46875 145.402344 206.488281 145.488281 206.277344 C 146.0625 204.835938 145.777344 202.632812 145.246094 201.269531 L 144.277344 201.050781 L 142.726562 202.46875 " fill-opacity="1" fill-rule="nonzero"/><path fill="#d1171c" d="M 149.375 203.820312 C 147.371094 203.820312 145.5 202.625 144.265625 200.613281 C 143.03125 202.625 141.160156 203.820312 139.15625 203.820312 C 136.886719 203.820312 134.808594 202.316406 133.597656 199.792969 C 133.421875 199.429688 133.574219 198.996094 133.9375 198.824219 C 134.300781 198.652344 134.738281 198.804688 134.910156 199.167969 C 135.875 201.171875 137.464844 202.371094 139.15625 202.371094 C 140.96875 202.371094 142.667969 200.976562 143.589844 198.730469 C 143.703125 198.460938 143.96875 198.28125 144.265625 198.28125 C 144.5625 198.28125 144.828125 198.460938 144.941406 198.730469 C 145.863281 200.976562 147.5625 202.371094 149.375 202.371094 C 151.066406 202.371094 152.65625 201.171875 153.621094 199.167969 C 153.792969 198.804688 154.230469 198.652344 154.59375 198.824219 C 154.957031 198.996094 155.109375 199.429688 154.933594 199.792969 C 153.722656 202.316406 151.644531 203.820312 149.375 203.820312 " fill-opacity="1" fill-rule="nonzero"/><path fill="#ede1a6" d="M 139.566406 139.429688 L 139.566406 139.429688 M 139.5625 139.429688 C 139.5625 139.425781 139.5625 139.425781 139.5625 139.425781 C 139.5625 139.425781 139.5625 139.425781 139.5625 139.429688 M 139.5625 139.425781 C 139.480469 139.289062 139.433594 139.144531 139.425781 138.992188 C 139.433594 139.144531 139.480469 139.289062 139.5625 139.425781 M 139.425781 138.992188 C 139.425781 138.988281 139.425781 138.988281 139.425781 138.988281 C 139.425781 138.988281 139.425781 138.988281 139.425781 138.992188 M 139.425781 138.988281 C 139.425781 138.984375 139.425781 138.980469 139.425781 138.976562 C 139.425781 138.980469 139.425781 138.984375 139.425781 138.988281 M 139.425781 138.976562 C 139.425781 138.972656 139.425781 138.972656 139.421875 138.96875 C 139.425781 138.972656 139.425781 138.972656 139.425781 138.976562 M 139.421875 138.96875 C 139.421875 138.964844 139.421875 138.964844 139.421875 138.964844 C 139.421875 138.964844 139.421875 138.964844 139.421875 138.96875 " fill-opacity="1" fill-rule="nonzero"/><path fill="#ffba00" d="M 144.257812 140.792969 C 142.1875 140.792969 140.117188 140.339844 139.566406 139.429688 C 139.5625 139.429688 139.5625 139.429688 139.5625 139.429688 C 139.5625 139.425781 139.5625 139.425781 139.5625 139.425781 C 139.480469 139.289062 139.433594 139.144531 139.425781 138.992188 C 139.425781 138.988281 139.425781 138.988281 139.425781 138.988281 C 139.425781 138.984375 139.425781 138.980469 139.425781 138.976562 C 139.425781 138.972656 139.425781 138.972656 139.421875 138.96875 C 139.421875 138.964844 139.421875 138.964844 139.421875 138.964844 C 139.421875 138.953125 139.421875 138.945312 139.421875 138.9375 L 139.421875 131.328125 C 140.371094 131.914062 141.335938 132.484375 142.316406 133.03125 L 142.316406 138.9375 C 142.316406 139.921875 143.855469 140.515625 145.707031 140.714844 C 145.238281 140.765625 144.75 140.792969 144.257812 140.792969 M 142.316406 127.925781 C 141.339844 127.332031 140.375 126.714844 139.421875 126.074219 L 139.421875 116.175781 C 140.371094 116.761719 141.335938 117.332031 142.316406 117.878906 L 142.316406 127.925781 " fill-opacity="1" fill-rule="nonzero"/><path fill="#ff4e36" d="M 142.316406 133.03125 C 141.335938 132.484375 140.371094 131.914062 139.421875 131.328125 L 139.421875 126.074219 C 140.375 126.714844 141.339844 127.332031 142.316406 127.925781 L 142.316406 133.03125 " fill-opacity="1" fill-rule="nonzero"/><path fill="#ffebb3" d="M 139.433594 92.058594 C 139.550781 90.980469 140.480469 90.226562 141.492188 90.226562 C 141.828125 90.226562 142.171875 90.308594 142.496094 90.492188 L 142.996094 90.769531 L 142.496094 90.492188 C 142.171875 90.308594 141.828125 90.226562 141.492188 90.226562 C 140.480469 90.226562 139.550781 90.980469 139.433594 92.058594 " fill-opacity="1" fill-rule="nonzero"/><path fill="#ffba00" d="M 142.316406 112.773438 C 141.339844 112.179688 140.375 111.5625 139.421875 110.917969 L 139.421875 101.019531 C 140.371094 101.609375 141.335938 102.175781 142.316406 102.726562 L 142.316406 112.773438 M 142.316406 97.621094 C 141.339844 97.027344 140.375 96.410156 139.421875 95.765625 L 139.421875 92.285156 C 139.421875 92.210938 139.425781 92.132812 139.433594 92.058594 C 139.550781 90.980469 140.480469 90.226562 141.492188 90.226562 C 141.828125 90.226562 142.171875 90.308594 142.496094 90.492188 L 142.996094 90.769531 C 142.585938 91.136719 142.316406 91.664062 142.316406 92.285156 L 142.316406 97.621094 " fill-opacity="1" fill-rule="nonzero"/><path fill="#ff4e36" d="M 142.316406 102.726562 C 141.335938 102.175781 140.371094 101.609375 139.421875 101.019531 L 139.421875 95.765625 C 140.375 96.410156 141.339844 97.027344 142.316406 97.621094 L 142.316406 102.726562 " fill-opacity="1" fill-rule="nonzero"/><path fill="#ff4e36" d="M 142.316406 117.878906 C 141.335938 117.332031 140.371094 116.761719 139.421875 116.175781 L 139.421875 110.917969 C 140.375 111.5625 141.339844 112.179688 142.316406 112.773438 L 142.316406 117.878906 " fill-opacity="1" fill-rule="nonzero"/><path fill="#d17333" d="M 157.34375 124.804688 C 155.472656 123.109375 155.339844 120.226562 157.042969 118.367188 C 158.746094 116.507812 161.644531 116.375 163.511719 118.070312 C 165.378906 119.765625 165.515625 122.648438 163.808594 124.507812 C 162.105469 126.367188 159.210938 126.5 157.34375 124.804688 " fill-opacity="1" fill-rule="nonzero"/><path fill="#d17333" d="M 170.859375 109.125 C 170.859375 111.082031 169.265625 112.671875 167.296875 112.671875 C 165.328125 112.671875 163.730469 111.082031 163.730469 109.125 C 163.730469 107.167969 165.328125 105.578125 167.296875 105.578125 C 169.265625 105.578125 170.859375 107.167969 170.859375 109.125 " fill-opacity="1" fill-rule="nonzero"/><path fill="#ffffff" d="M 169.066406 108.15625 L 169.074219 108.148438 C 169.316406 107.929688 169.292969 107.546875 169.035156 107.347656 C 168.542969 106.972656 167.9375 106.742188 167.269531 106.742188 C 166.195312 106.742188 165.261719 107.320312 164.753906 108.175781 C 165.253906 107.777344 165.886719 107.539062 166.574219 107.539062 C 167.261719 107.539062 167.890625 107.777344 168.390625 108.175781 C 168.589844 108.335938 168.875 108.324219 169.066406 108.15625 " fill-opacity="1" fill-rule="nonzero"/><path fill="#ffffff" d="M 175.363281 119.808594 L 175.367188 119.816406 C 175.554688 120.058594 175.910156 120.0625 176.117188 119.839844 C 176.5 119.417969 176.757812 118.875 176.804688 118.261719 C 176.882812 117.277344 176.417969 116.375 175.660156 115.84375 C 175.992188 116.332031 176.167969 116.933594 176.117188 117.566406 C 176.066406 118.199219 175.796875 118.757812 175.394531 119.1875 C 175.230469 119.359375 175.21875 119.621094 175.363281 119.808594 " fill-opacity="1" fill-rule="nonzero"/><path fill="#ffffff" d="M 157.976562 122.113281 L 157.964844 122.113281 C 157.644531 122.179688 157.46875 122.523438 157.59375 122.824219 C 157.824219 123.394531 158.234375 123.898438 158.808594 124.234375 C 159.734375 124.773438 160.832031 124.746094 161.707031 124.265625 C 161.074219 124.355469 160.40625 124.242188 159.808594 123.894531 C 159.214844 123.550781 158.796875 123.027344 158.570312 122.433594 C 158.476562 122.195312 158.226562 122.0625 157.976562 122.113281 " fill-opacity="1" fill-rule="nonzero"/><path fill="#ffffff" d="M 158.175781 120.523438 C 158.257812 120.804688 158.097656 121.101562 157.816406 121.183594 C 157.53125 121.265625 157.234375 121.105469 157.152344 120.824219 C 157.066406 120.542969 157.226562 120.246094 157.511719 120.164062 C 157.792969 120.082031 158.089844 120.242188 158.175781 120.523438 " fill-opacity="1" fill-rule="nonzero"/><path fill="#ff554d" d="M 268.492188 232.003906 C 268.492188 241.097656 195.222656 241.097656 195.222656 232.003906 L 184.757812 156.355469 L 278.960938 156.355469 L 268.492188 232.003906 " fill-opacity="1" fill-rule="nonzero"/><path fill="#ffffff" d="M 237.289062 238.753906 L 238.664062 156.355469 L 225.050781 156.355469 L 226.425781 238.753906 C 230.023438 238.84375 233.691406 238.84375 237.289062 238.753906 " fill-opacity="1" fill-rule="nonzero"/><path fill="#ffffff" d="M 203.761719 236.570312 C 206.871094 237.230469 210.652344 237.746094 214.8125 238.117188 L 210.371094 156.355469 L 196.714844 156.355469 L 203.761719 236.570312 " fill-opacity="1" fill-rule="nonzero"/><path fill="#ffffff" d="M 267.003906 156.355469 L 253.34375 156.355469 L 248.902344 238.117188 C 253.0625 237.746094 256.84375 237.230469 259.953125 236.570312 L 267.003906 156.355469 " fill-opacity="1" fill-rule="nonzero"/><path fill="#ffef9f" d="M 254.386719 196.691406 C 254.386719 207.621094 244.300781 216.480469 231.859375 216.480469 C 219.417969 216.480469 209.328125 207.621094 209.328125 196.691406 C 209.328125 185.761719 219.417969 176.902344 231.859375 176.902344 C 244.300781 176.902344 254.386719 185.761719 254.386719 196.691406 " fill-opacity="1" fill-rule="nonzero"/><path fill="#ff554d" d="M 231.859375 178.152344 C 220.125 178.152344 210.582031 186.46875 210.582031 196.691406 C 210.582031 206.914062 220.125 215.226562 231.859375 215.226562 C 243.589844 215.226562 253.132812 206.914062 253.132812 196.691406 C 253.132812 186.46875 243.589844 178.152344 231.859375 178.152344 M 231.859375 217.734375 C 218.746094 217.734375 208.078125 208.292969 208.078125 196.691406 C 208.078125 185.085938 218.746094 175.648438 231.859375 175.648438 C 244.972656 175.648438 255.640625 185.085938 255.640625 196.691406 C 255.640625 208.292969 244.972656 217.734375 231.859375 217.734375 " fill-opacity="1" fill-rule="nonzero"/><path fill="#000000" d="M 218.097656 198.816406 C 214.15625 198.816406 210.949219 194.957031 210.949219 190.21875 C 210.949219 189.800781 211.289062 189.464844 211.703125 189.464844 C 212.117188 189.464844 212.453125 189.800781 212.453125 190.21875 C 212.453125 194.128906 214.984375 197.3125 218.097656 197.3125 C 221.207031 197.3125 223.738281 194.128906 223.738281 190.21875 C 223.738281 189.800781 224.074219 189.464844 224.492188 189.464844 C 224.90625 189.464844 225.242188 189.800781 225.242188 190.21875 C 225.242188 194.957031 222.035156 198.816406 218.097656 198.816406 " fill-opacity="1" fill-rule="nonzero"/><path fill="#000000" d="M 248.328125 198.816406 C 244.386719 198.816406 241.179688 194.957031 241.179688 190.21875 C 241.179688 189.800781 241.519531 189.464844 241.933594 189.464844 C 242.347656 189.464844 242.683594 189.800781 242.683594 190.21875 C 242.683594 194.128906 245.214844 197.3125 248.328125 197.3125 C 251.4375 197.3125 253.96875 194.128906 253.96875 190.21875 C 253.96875 189.800781 254.304688 189.464844 254.722656 189.464844 C 255.136719 189.464844 255.472656 189.800781 255.472656 190.21875 C 255.472656 194.957031 252.265625 198.816406 248.328125 198.816406 " fill-opacity="1" fill-rule="nonzero"/><path fill="#f0edf2" d="M 231.859375 238.824219 C 213.539062 238.824219 195.222656 236.550781 195.222656 232.003906 L 187.074219 173.101562 L 184.757812 156.355469 L 195.222656 232.003906 C 195.222656 236.550781 213.539062 238.824219 231.859375 238.824219 C 250.175781 238.824219 268.492188 236.550781 268.492188 232.003906 L 269.316406 226.058594 L 268.492188 232.003906 C 268.492188 236.550781 250.175781 238.824219 231.859375 238.824219 M 276.003906 177.699219 L 278.960938 156.355469 L 276.003906 177.699219 " fill-opacity="1" fill-rule="nonzero"/><path fill="#f04f49" d="M 231.859375 238.824219 C 213.539062 238.824219 195.222656 236.550781 195.222656 232.003906 L 184.757812 156.355469 L 196.714844 156.355469 L 203.761719 236.570312 C 206.871094 237.230469 210.652344 237.746094 214.8125 238.117188 L 214.082031 224.671875 C 217.519531 228.285156 221.695312 231.140625 226.328125 233.007812 L 226.425781 238.753906 C 228.222656 238.800781 230.039062 238.820312 231.859375 238.820312 C 233.675781 238.820312 235.492188 238.800781 237.289062 238.753906 L 237.347656 235.449219 C 237.933594 235.476562 238.523438 235.496094 239.113281 235.496094 C 240.683594 235.496094 242.277344 235.386719 243.878906 235.164062 C 245.652344 234.917969 247.402344 234.605469 249.113281 234.234375 L 248.902344 238.117188 C 253.0625 237.746094 256.84375 237.230469 259.953125 236.570312 L 260.457031 230.808594 C 264.121094 229.339844 267.1875 227.6875 269.316406 226.058594 L 268.492188 232.003906 C 268.492188 236.550781 250.175781 238.824219 231.859375 238.824219 M 244.324219 178.777344 C 242.476562 177.765625 240.464844 176.972656 238.328125 176.4375 L 238.664062 156.355469 L 253.34375 156.355469 L 252.640625 169.320312 C 252.171875 169.398438 251.695312 169.4375 251.222656 169.4375 C 250.722656 169.4375 250.226562 169.394531 249.742188 169.308594 C 249.367188 173.191406 247.316406 176.589844 244.324219 178.777344 M 276.003906 177.699219 C 273.695312 177.203125 271.554688 176.097656 269.808594 174.484375 C 268.5 175.667969 266.921875 176.476562 265.203125 176.835938 L 267.003906 156.355469 L 278.960938 156.355469 L 276.003906 177.699219 M 211.46875 176.574219 L 210.371094 156.355469 L 225.050781 156.355469 L 225.367188 175.347656 C 223.996094 173.277344 223.1875 170.804688 223.164062 168.148438 C 222.390625 168.375 221.578125 168.488281 220.773438 168.488281 C 220.453125 168.488281 220.136719 168.46875 219.820312 168.433594 C 219.605469 172.894531 215.957031 176.46875 211.46875 176.574219 " fill-opacity="1" fill-rule="nonzero"/><path fill="#f0ecf2" d="M 231.859375 238.820312 C 230.039062 238.820312 228.222656 238.800781 226.425781 238.753906 L 226.328125 233.007812 C 229.789062 234.402344 233.5 235.25 237.347656 235.449219 L 237.289062 238.753906 C 235.492188 238.800781 233.675781 238.820312 231.859375 238.820312 M 238.328125 176.4375 C 236.269531 175.921875 234.101562 175.648438 231.859375 175.648438 C 229.851562 175.648438 227.90625 175.867188 226.046875 176.28125 C 225.808594 175.980469 225.582031 175.667969 225.367188 175.347656 L 225.050781 156.355469 L 238.664062 156.355469 L 238.328125 176.4375 " fill-opacity="1" fill-rule="nonzero"/><path fill="#f0ecf2" d="M 214.8125 238.117188 C 210.652344 237.746094 206.871094 237.230469 203.761719 236.570312 L 196.714844 156.355469 L 210.371094 156.355469 L 211.46875 176.574219 C 211.402344 176.574219 211.335938 176.574219 211.265625 176.574219 C 207.039062 176.574219 203.515625 173.496094 202.828125 169.460938 C 201.871094 169.761719 200.867188 169.914062 199.847656 169.914062 L 199.84375 169.914062 L 204.734375 205.265625 C 205.78125 212.824219 209.175781 219.519531 214.082031 224.671875 L 214.8125 238.117188 " fill-opacity="1" fill-rule="nonzero"/><path fill="#f0ecf2" d="M 248.902344 238.117188 L 249.113281 234.234375 C 253.21875 233.355469 257.089844 232.160156 260.457031 230.808594 L 259.953125 236.570312 C 256.84375 237.230469 253.0625 237.746094 248.902344 238.117188 M 263.125 177.050781 C 258.339844 177.050781 254.328125 173.667969 253.359375 169.167969 C 253.121094 169.230469 252.882812 169.28125 252.640625 169.320312 L 253.34375 156.355469 L 267.003906 156.355469 L 265.203125 176.835938 C 264.527344 176.980469 263.835938 177.050781 263.125 177.050781 " fill-opacity="1" fill-rule="nonzero"/><path fill="#f0de97" d="M 236.484375 181.332031 C 233.351562 181.332031 230.464844 180.246094 228.191406 178.429688 C 229.382812 178.25 230.605469 178.152344 231.859375 178.152344 C 235.410156 178.152344 238.761719 178.917969 241.710938 180.265625 C 240.105469 180.953125 238.335938 181.332031 236.484375 181.332031 " fill-opacity="1" fill-rule="nonzero"/><path fill="#f04f49" d="M 241.710938 180.265625 C 238.761719 178.917969 235.410156 178.152344 231.859375 178.152344 C 230.605469 178.152344 229.382812 178.25 228.191406 178.429688 C 227.394531 177.796875 226.675781 177.078125 226.046875 176.28125 C 227.90625 175.867188 229.851562 175.648438 231.859375 175.648438 C 234.101562 175.648438 236.269531 175.921875 238.328125 176.4375 C 240.464844 176.972656 242.476562 177.765625 244.324219 178.777344 C 243.515625 179.367188 242.640625 179.867188 241.710938 180.265625 " fill-opacity="1" fill-rule="nonzero"/><g clip-path="url(#31a446b459)"><path fill="#ffef9f" d="M 297.890625 232.03125 C 297.546875 228.542969 294.605469 225.820312 291.027344 225.820312 C 290.484375 225.820312 289.960938 225.886719 289.453125 226.007812 C 289.992188 225.289062 290.316406 224.402344 290.316406 223.441406 C 290.316406 221.074219 288.398438 219.15625 286.03125 219.15625 C 284.097656 219.15625 282.460938 220.445312 281.933594 222.207031 C 281.175781 221.78125 280.304688 221.535156 279.371094 221.535156 C 276.480469 221.535156 274.140625 223.878906 274.140625 226.769531 C 274.140625 229.5625 276.328125 231.835938 279.082031 231.988281 C 278.101562 232.773438 277.46875 233.980469 277.46875 235.335938 C 277.46875 237.699219 279.386719 239.617188 281.75 239.617188 C 283.503906 239.617188 285.007812 238.5625 285.667969 237.058594 C 286.933594 238.617188 288.863281 239.617188 291.027344 239.617188 C 292.40625 239.617188 293.691406 239.207031 294.769531 238.507812 C 295.457031 239.191406 296.40625 239.617188 297.453125 239.617188 C 299.554688 239.617188 301.257812 237.910156 301.257812 235.808594 C 301.257812 233.855469 299.785156 232.25 297.890625 232.03125 " fill-opacity="1" fill-rule="nonzero"/></g><path fill="#ffffff" d="M 292.472656 235.125 C 290.828125 235.410156 289.136719 234.585938 288.351562 233.113281 C 288.011719 232.476562 287.863281 231.808594 287.875 231.160156 C 287.878906 230.96875 287.613281 230.917969 287.558594 231.101562 C 287.269531 232.089844 287.359375 233.203125 287.945312 234.214844 C 288.726562 235.574219 290.304688 236.339844 291.851562 236.125 C 293.007812 235.964844 293.9375 235.355469 294.535156 234.523438 C 294.648438 234.371094 294.445312 234.183594 294.296875 234.304688 C 293.792969 234.710938 293.179688 235.003906 292.472656 235.125 " fill-opacity="1" fill-rule="nonzero"/><path fill="#ffffff" d="M 276.976562 226.03125 C 277.867188 224.621094 279.613281 223.917969 281.234375 224.320312 C 281.933594 224.496094 282.527344 224.832031 283.003906 225.28125 C 283.140625 225.410156 283.355469 225.246094 283.257812 225.082031 C 282.722656 224.203125 281.835938 223.527344 280.6875 223.28125 C 279.15625 222.953125 277.53125 223.609375 276.652344 224.902344 C 275.996094 225.867188 275.824219 226.964844 276.039062 227.96875 C 276.082031 228.15625 276.355469 228.128906 276.363281 227.9375 C 276.398438 227.289062 276.59375 226.636719 276.976562 226.03125 " fill-opacity="1" fill-rule="nonzero"/><g clip-path="url(#259d2c83d3)"><path fill="#ffef9f" d="M 277.707031 95.457031 C 276.59375 95.457031 275.542969 95.726562 274.613281 96.195312 L 274.613281 96.171875 C 274.613281 94.199219 273.015625 92.601562 271.046875 92.601562 C 270.1875 92.601562 269.402344 92.902344 268.789062 93.40625 C 267.792969 92.054688 266.195312 91.175781 264.386719 91.175781 C 261.363281 91.175781 258.914062 93.625 258.914062 96.644531 C 258.914062 98.351562 259.695312 99.871094 260.914062 100.875 C 259.714844 101.632812 258.914062 102.96875 258.914062 104.496094 C 258.914062 106.859375 260.832031 108.777344 263.195312 108.777344 C 264.113281 108.777344 264.957031 108.488281 265.652344 108 C 266.078125 110.597656 268.328125 112.585938 271.046875 112.585938 C 273.375 112.585938 275.363281 111.125 276.148438 109.070312 C 276.652344 109.1875 277.171875 109.253906 277.707031 109.253906 C 281.515625 109.253906 284.605469 106.164062 284.605469 102.355469 C 284.605469 98.546875 281.515625 95.457031 277.707031 95.457031 " fill-opacity="1" fill-rule="nonzero"/></g><path fill="#ffffff" d="M 276.765625 99.914062 C 278.328125 99.320312 280.144531 99.804688 281.199219 101.101562 C 281.65625 101.660156 281.929688 102.289062 282.039062 102.929688 C 282.074219 103.117188 282.34375 103.113281 282.363281 102.925781 C 282.460938 101.898438 282.160156 100.824219 281.386719 99.941406 C 280.359375 98.757812 278.664062 98.304688 277.183594 98.8125 C 276.078125 99.191406 275.285156 99.96875 274.855469 100.898438 C 274.773438 101.070312 275.007812 101.214844 275.132812 101.066406 C 275.546875 100.570312 276.097656 100.167969 276.765625 99.914062 " fill-opacity="1" fill-rule="nonzero"/><path fill="#ffffff" d="M 271.070312 108.113281 C 269.753906 107.917969 268.636719 106.96875 268.234375 105.699219 C 268.058594 105.148438 268.023438 104.617188 268.09375 104.121094 C 268.121094 103.933594 267.875 103.847656 267.773438 104.003906 C 267.316406 104.710938 267.101562 105.585938 267.25 106.515625 C 267.492188 108.039062 268.75 109.25 270.277344 109.445312 C 271.714844 109.628906 273.007812 108.949219 273.714844 107.859375 C 273.816406 107.703125 273.636719 107.511719 273.480469 107.609375 C 272.800781 108.039062 271.960938 108.242188 271.070312 108.113281 " fill-opacity="1" fill-rule="nonzero"/><g clip-path="url(#a4779cc256)"><path fill="#ffef9f" d="M 284.675781 148.203125 C 286.128906 146.9375 287.050781 145.078125 287.050781 143 C 287.050781 139.191406 283.960938 136.101562 280.152344 136.101562 C 277.910156 136.101562 275.921875 137.175781 274.664062 138.835938 C 274.503906 135.070312 271.847656 131.960938 268.304688 131.105469 C 269.625 129.21875 270.398438 126.921875 270.398438 124.445312 C 270.398438 118.007812 265.179688 112.789062 258.742188 112.789062 C 256.304688 112.789062 254.042969 113.539062 252.171875 114.816406 C 251.449219 110.957031 248.066406 108.03125 243.992188 108.03125 C 241.3125 108.03125 238.9375 109.300781 237.414062 111.269531 C 236.835938 108.867188 234.679688 107.078125 232.097656 107.078125 C 230.59375 107.078125 229.230469 107.6875 228.242188 108.671875 C 227.390625 105.824219 224.753906 103.75 221.632812 103.75 C 217.824219 103.75 214.734375 106.839844 214.734375 110.648438 C 214.734375 111.453125 214.878906 112.226562 215.132812 112.945312 C 214.617188 112.84375 214.089844 112.789062 213.542969 112.789062 C 208.945312 112.789062 205.21875 116.515625 205.21875 121.113281 C 205.21875 122.839844 205.742188 124.441406 206.640625 125.769531 C 205.382812 126.050781 204.292969 126.761719 203.527344 127.742188 C 202.066406 125.339844 199.433594 123.730469 196.417969 123.730469 C 191.816406 123.730469 188.089844 127.460938 188.089844 132.058594 C 188.089844 133.179688 188.316406 134.25 188.71875 135.226562 C 188.433594 135.179688 188.148438 135.152344 187.851562 135.152344 C 184.832031 135.152344 182.382812 137.601562 182.382812 140.621094 C 182.382812 141.40625 182.546875 142.148438 182.84375 142.820312 C 182.457031 142.785156 182.066406 142.761719 181.667969 142.761719 C 175.230469 142.761719 170.011719 147.980469 170.011719 154.417969 C 170.011719 160.855469 175.230469 166.074219 181.667969 166.074219 C 186.859375 166.074219 191.253906 162.679688 192.765625 157.992188 C 194.246094 160.277344 196.820312 161.792969 199.746094 161.792969 C 201.460938 161.792969 203.050781 161.277344 204.371094 160.390625 C 204.308594 160.769531 204.265625 161.15625 204.265625 161.554688 C 204.265625 165.367188 207.355469 168.453125 211.164062 168.453125 C 214.976562 168.453125 218.0625 165.367188 218.0625 161.554688 C 218.0625 160.925781 217.972656 160.316406 217.8125 159.738281 C 218.6875 160.136719 219.65625 160.367188 220.679688 160.367188 C 222.34375 160.367188 223.863281 159.777344 225.054688 158.800781 C 224.839844 159.683594 224.726562 160.605469 224.726562 161.554688 C 224.726562 167.992188 229.945312 173.210938 236.382812 173.210938 C 242.820312 173.210938 248.039062 167.992188 248.039062 161.554688 C 248.039062 161.21875 248.019531 160.886719 247.992188 160.558594 C 248.933594 161.039062 250 161.320312 251.132812 161.320312 C 252.445312 161.320312 253.667969 160.945312 254.714844 160.304688 C 254.710938 160.40625 254.699219 160.503906 254.699219 160.605469 C 254.699219 165.203125 258.425781 168.929688 263.023438 168.929688 C 265.753906 168.929688 268.167969 167.613281 269.6875 165.582031 C 271.824219 168.207031 275.078125 169.882812 278.726562 169.882812 C 285.164062 169.882812 290.382812 164.664062 290.382812 158.226562 C 290.382812 153.960938 288.089844 150.234375 284.675781 148.203125 " fill-opacity="1" fill-rule="nonzero"/></g><path fill="#ffffff" d="M 211.691406 125.183594 C 212.191406 123.589844 213.699219 122.460938 215.371094 122.433594 C 216.089844 122.421875 216.753906 122.597656 217.328125 122.90625 C 217.492188 122.996094 217.660156 122.78125 217.523438 122.652344 C 216.777344 121.9375 215.746094 121.511719 214.574219 121.566406 C 213.007812 121.648438 211.605469 122.695312 211.085938 124.175781 C 210.703125 125.277344 210.820312 126.382812 211.285156 127.296875 C 211.371094 127.464844 211.628906 127.371094 211.589844 127.183594 C 211.457031 126.546875 211.480469 125.867188 211.691406 125.183594 " fill-opacity="1" fill-rule="nonzero"/><path fill="#ffffff" d="M 278.792969 140.125 C 280.355469 139.53125 282.171875 140.019531 283.226562 141.3125 C 283.683594 141.871094 283.957031 142.5 284.066406 143.144531 C 284.101562 143.332031 284.371094 143.328125 284.390625 143.140625 C 284.488281 142.113281 284.1875 141.039062 283.417969 140.152344 C 282.386719 138.972656 280.695312 138.519531 279.210938 139.027344 C 278.109375 139.40625 277.3125 140.179688 276.882812 141.109375 C 276.800781 141.285156 277.035156 141.429688 277.160156 141.28125 C 277.578125 140.785156 278.125 140.382812 278.792969 140.125 " fill-opacity="1" fill-rule="nonzero"/><path fill="#ffffff" d="M 255.832031 117.410156 C 257.757812 116.636719 260.027344 117.195312 261.371094 118.777344 C 261.953125 119.460938 262.308594 120.234375 262.460938 121.03125 C 262.503906 121.261719 262.84375 121.253906 262.859375 121.015625 C 262.957031 119.742188 262.554688 118.410156 261.578125 117.332031 C 260.269531 115.890625 258.152344 115.367188 256.324219 116.035156 C 254.964844 116.535156 253.992188 117.515625 253.480469 118.683594 C 253.386719 118.902344 253.683594 119.074219 253.832031 118.886719 C 254.335938 118.261719 255.007812 117.746094 255.832031 117.410156 " fill-opacity="1" fill-rule="nonzero"/><path fill="#ffffff" d="M 237.597656 166.503906 C 234.777344 166.992188 231.878906 165.578125 230.527344 163.054688 C 229.945312 161.964844 229.691406 160.816406 229.714844 159.703125 C 229.722656 159.378906 229.261719 159.292969 229.171875 159.601562 C 228.671875 161.296875 228.824219 163.207031 229.832031 164.945312 C 231.175781 167.269531 233.875 168.589844 236.539062 168.21875 C 238.515625 167.941406 240.109375 166.898438 241.136719 165.476562 C 241.332031 165.207031 240.980469 164.890625 240.726562 165.097656 C 239.863281 165.796875 238.808594 166.296875 237.597656 166.503906 " fill-opacity="1" fill-rule="nonzero"/><path fill="#ffffff" d="M 285.039062 159.929688 C 284.046875 162.613281 281.371094 164.414062 278.507812 164.316406 C 277.273438 164.273438 276.152344 163.917969 275.199219 163.335938 C 274.921875 163.167969 274.617188 163.523438 274.839844 163.757812 C 276.054688 165.039062 277.785156 165.863281 279.792969 165.867188 C 282.480469 165.871094 284.976562 164.195312 285.988281 161.707031 C 286.742188 159.855469 286.640625 157.957031 285.925781 156.351562 C 285.789062 156.050781 285.339844 156.191406 285.390625 156.519531 C 285.5625 157.613281 285.464844 158.777344 285.039062 159.929688 " fill-opacity="1" fill-rule="nonzero"/><path fill="#ffffff" d="M 177.074219 150.910156 C 177.410156 149.078125 178.921875 147.628906 180.765625 147.371094 C 181.558594 147.257812 182.316406 147.359375 182.992188 147.625 C 183.1875 147.703125 183.34375 147.441406 183.175781 147.316406 C 182.253906 146.632812 181.054688 146.296875 179.765625 146.523438 C 178.046875 146.820312 176.640625 148.171875 176.269531 149.878906 C 175.992188 151.148438 176.273438 152.351562 176.910156 153.300781 C 177.03125 153.476562 177.300781 153.335938 177.234375 153.132812 C 177 152.449219 176.933594 151.695312 177.074219 150.910156 " fill-opacity="1" fill-rule="nonzero"/><path fill="#ffffff" d="M 255.332031 151.078125 C 253.699219 150.839844 252.320312 149.660156 251.816406 148.085938 C 251.601562 147.40625 251.558594 146.75 251.648438 146.132812 C 251.679688 145.902344 251.375 145.796875 251.25 145.992188 C 250.683594 146.863281 250.417969 147.945312 250.601562 149.097656 C 250.902344 150.984375 252.457031 152.484375 254.351562 152.726562 C 256.132812 152.953125 257.730469 152.117188 258.609375 150.761719 C 258.734375 150.570312 258.511719 150.335938 258.316406 150.457031 C 257.472656 150.988281 256.4375 151.238281 255.332031 151.078125 " fill-opacity="1" fill-rule="nonzero"/><path fill="#ffffff" d="M 270.648438 154.035156 C 269.359375 155.0625 267.550781 155.261719 266.0625 154.550781 C 265.417969 154.246094 264.910156 153.824219 264.519531 153.339844 C 264.375 153.15625 264.089844 153.304688 264.148438 153.53125 C 264.394531 154.542969 265 155.476562 265.96875 156.132812 C 267.546875 157.203125 269.707031 157.097656 271.179688 155.882812 C 272.5625 154.742188 273.046875 153 272.664062 151.4375 C 272.609375 151.210938 272.285156 151.214844 272.238281 151.4375 C 272.046875 152.417969 271.519531 153.34375 270.648438 154.035156 " fill-opacity="1" fill-rule="nonzero"/><path fill="#ffffff" d="M 261.371094 154.09375 C 260.097656 153.863281 259.042969 152.894531 258.703125 151.644531 C 258.613281 151.3125 258.574219 150.984375 258.578125 150.667969 C 258.582031 150.503906 258.367188 150.453125 258.289062 150.59375 C 257.964844 151.214844 257.828125 151.949219 257.949219 152.71875 C 258.171875 154.160156 259.328125 155.324219 260.765625 155.550781 C 262.429688 155.816406 263.910156 154.882812 264.492188 153.480469 C 264.554688 153.332031 264.375 153.199219 264.25 153.304688 C 263.507812 153.957031 262.476562 154.289062 261.371094 154.09375 " fill-opacity="1" fill-rule="nonzero"/><path fill="#ffffff" d="M 214.488281 138.675781 C 212.96875 138.453125 211.679688 137.355469 211.210938 135.890625 C 211.011719 135.257812 210.972656 134.644531 211.050781 134.070312 C 211.082031 133.855469 210.800781 133.753906 210.679688 133.9375 C 210.152344 134.75 209.90625 135.757812 210.078125 136.832031 C 210.359375 138.589844 211.808594 139.988281 213.574219 140.214844 C 215.230469 140.425781 216.722656 139.644531 217.539062 138.382812 C 217.65625 138.203125 217.449219 137.984375 217.265625 138.097656 C 216.480469 138.59375 215.515625 138.824219 214.488281 138.675781 " fill-opacity="1" fill-rule="nonzero"/><path fill="#ffffff" d="M 237.738281 144.292969 C 236.148438 145.558594 233.917969 145.804688 232.082031 144.929688 C 231.289062 144.550781 230.660156 144.03125 230.179688 143.433594 C 230.003906 143.207031 229.652344 143.390625 229.71875 143.671875 C 230.023438 144.917969 230.773438 146.070312 231.964844 146.878906 C 233.914062 148.199219 236.574219 148.066406 238.394531 146.570312 C 240.101562 145.164062 240.695312 143.015625 240.222656 141.085938 C 240.15625 140.8125 239.753906 140.8125 239.699219 141.089844 C 239.464844 142.296875 238.8125 143.4375 237.738281 144.292969 " fill-opacity="1" fill-rule="nonzero"/><path fill="#ffffff" d="M 226.296875 144.363281 C 224.726562 144.082031 223.425781 142.882812 223.007812 141.34375 C 222.894531 140.929688 222.847656 140.527344 222.855469 140.136719 C 222.859375 139.9375 222.589844 139.871094 222.496094 140.050781 C 222.097656 140.816406 221.925781 141.71875 222.074219 142.671875 C 222.351562 144.445312 223.777344 145.878906 225.550781 146.160156 C 227.601562 146.488281 229.429688 145.335938 230.144531 143.609375 C 230.222656 143.421875 230 143.257812 229.847656 143.390625 C 228.929688 144.195312 227.660156 144.605469 226.296875 144.363281 " fill-opacity="1" fill-rule="nonzero"/><path fill="#ffffff" d="M 253.96875 132.167969 C 255.289062 132.332031 256.425781 133.261719 256.859375 134.523438 C 257.046875 135.066406 257.089844 135.597656 257.03125 136.097656 C 257.007812 136.285156 257.257812 136.363281 257.355469 136.203125 C 257.796875 135.492188 257.992188 134.613281 257.824219 133.683594 C 257.546875 132.167969 256.265625 130.984375 254.730469 130.820312 C 253.292969 130.667969 252.015625 131.371094 251.328125 132.480469 C 251.234375 132.636719 251.414062 132.824219 251.570312 132.722656 C 252.242188 132.28125 253.078125 132.058594 253.96875 132.167969 " fill-opacity="1" fill-rule="nonzero"/><path fill="#ffffff" d="M 200.007812 149.253906 C 198.269531 149 196.796875 147.742188 196.261719 146.066406 C 196.03125 145.34375 195.984375 144.640625 196.078125 143.984375 C 196.113281 143.738281 195.789062 143.625 195.652344 143.832031 C 195.050781 144.761719 194.765625 145.917969 194.964844 147.144531 C 195.285156 149.15625 196.941406 150.753906 198.960938 151.011719 C 200.859375 151.253906 202.5625 150.359375 203.5 148.917969 C 203.632812 148.714844 203.394531 148.460938 203.1875 148.589844 C 202.289062 149.15625 201.183594 149.425781 200.007812 149.253906 " fill-opacity="1" fill-rule="nonzero"/><path fill="#ffffff" d="M 206.445312 152.46875 C 205.085938 152.222656 203.960938 151.1875 203.601562 149.855469 C 203.503906 149.503906 203.460938 149.152344 203.46875 148.816406 C 203.472656 148.644531 203.242188 148.585938 203.160156 148.738281 C 202.816406 149.402344 202.667969 150.179688 202.792969 151.003906 C 203.035156 152.539062 204.265625 153.777344 205.800781 154.023438 C 207.570312 154.304688 209.152344 153.308594 209.769531 151.816406 C 209.835938 151.65625 209.644531 151.511719 209.515625 151.628906 C 208.71875 152.324219 207.621094 152.679688 206.445312 152.46875 " fill-opacity="1" fill-rule="nonzero"/><path fill="#ffffff" d="M 237.800781 118.5625 C 239.707031 118.160156 241.722656 118.902344 242.921875 120.441406 C 243.441406 121.109375 243.757812 121.820312 243.910156 122.539062 C 243.96875 122.808594 244.347656 122.800781 244.410156 122.53125 C 244.679688 121.335938 244.535156 120.023438 243.859375 118.824219 C 242.753906 116.855469 240.414062 115.828125 238.214844 116.332031 C 236.148438 116.804688 234.71875 118.390625 234.296875 120.25 C 234.238281 120.515625 234.582031 120.683594 234.746094 120.46875 C 235.464844 119.539062 236.511719 118.835938 237.800781 118.5625 " fill-opacity="1" fill-rule="nonzero"/><path fill="#ffffff" d="M 229.871094 117.6875 C 231.378906 117.417969 232.945312 118.066406 233.832031 119.3125 C 234.066406 119.644531 234.246094 119.992188 234.367188 120.34375 C 234.429688 120.527344 234.695312 120.496094 234.71875 120.304688 C 234.824219 119.484375 234.679688 118.617188 234.230469 117.808594 C 233.394531 116.304688 231.632812 115.488281 229.949219 115.820312 C 227.996094 116.207031 226.734375 117.847656 226.660156 119.640625 C 226.652344 119.832031 226.90625 119.90625 227 119.734375 C 227.5625 118.710938 228.566406 117.917969 229.871094 117.6875 " fill-opacity="1" fill-rule="nonzero"/><path fill="#ffef9f" d="M 256.394531 238.851562 C 257.445312 238.480469 258.34375 237.875 259.066406 237.125 L 259.074219 237.148438 C 259.730469 239.007812 261.769531 239.980469 263.625 239.324219 C 264.433594 239.039062 265.074219 238.492188 265.488281 237.8125 C 266.875 238.757812 268.675781 239.054688 270.382812 238.453125 C 273.230469 237.449219 274.726562 234.324219 273.71875 231.472656 C 273.152344 229.867188 271.910156 228.691406 270.425781 228.152344 C 271.304688 227.035156 271.617188 225.511719 271.109375 224.070312 C 270.320312 221.839844 267.875 220.671875 265.644531 221.457031 C 264.78125 221.761719 264.078125 222.316406 263.585938 223.011719 C 262.320312 220.699219 259.539062 219.578125 256.976562 220.484375 C 254.777344 221.257812 253.390625 223.296875 253.332031 225.492188 C 252.820312 225.550781 252.308594 225.660156 251.804688 225.839844 C 248.210938 227.105469 246.324219 231.046875 247.59375 234.640625 C 248.863281 238.234375 252.800781 240.117188 256.394531 238.851562 " fill-opacity="1" fill-rule="nonzero"/><path fill="#ffffff" d="M 255.886719 234.105469 C 254.300781 234.554688 252.554688 234.046875 251.453125 232.816406 C 250.976562 232.285156 250.667969 231.703125 250.496094 231.105469 C 250.433594 230.882812 250.113281 230.910156 250.074219 231.140625 C 249.917969 232.167969 250.117188 233.265625 250.757812 234.238281 C 251.808594 235.835938 253.839844 236.566406 255.667969 236.011719 C 257.382812 235.488281 258.5 234.070312 258.746094 232.476562 C 258.78125 232.25 258.480469 232.125 258.351562 232.316406 C 257.800781 233.144531 256.957031 233.800781 255.886719 234.105469 " fill-opacity="1" fill-rule="nonzero"/><path fill="#ffffff" d="M 268.839844 233.738281 C 267.765625 234.003906 266.601562 233.617188 265.898438 232.761719 C 265.710938 232.535156 265.566406 232.292969 265.460938 232.042969 C 265.40625 231.914062 265.21875 231.949219 265.207031 232.089844 C 265.171875 232.6875 265.320312 233.304688 265.6875 233.867188 C 266.363281 234.910156 267.675781 235.410156 268.875 235.085938 C 270.265625 234.710938 271.097656 233.464844 271.058594 232.164062 C 271.054688 232.027344 270.867188 231.984375 270.808594 232.113281 C 270.453125 232.882812 269.769531 233.503906 268.839844 233.738281 " fill-opacity="1" fill-rule="nonzero"/><path fill="#ffffff" d="M 256.105469 224.960938 C 257 223.550781 258.742188 222.847656 260.363281 223.25 C 261.0625 223.425781 261.660156 223.761719 262.132812 224.207031 C 262.269531 224.339844 262.484375 224.175781 262.386719 224.011719 C 261.851562 223.132812 260.964844 222.457031 259.816406 222.210938 C 258.285156 221.882812 256.660156 222.539062 255.78125 223.835938 C 255.125 224.796875 254.957031 225.894531 255.167969 226.898438 C 255.210938 227.085938 255.484375 227.058594 255.496094 226.867188 C 255.527344 226.21875 255.726562 225.566406 256.105469 224.960938 " fill-opacity="1" fill-rule="nonzero"/><path fill="#000000" d="M 232.902344 211.085938 C 237.816406 211.085938 241.800781 207.101562 241.800781 202.1875 L 224.003906 202.1875 C 224.003906 207.101562 227.988281 211.085938 232.902344 211.085938 " fill-opacity="1" fill-rule="nonzero"/><path fill="#ffffff" d="M 224.003906 201.96875 C 224.003906 202.027344 224.011719 202.089844 224.011719 202.152344 L 226.175781 204.902344 L 233.78125 204.902344 L 235.160156 203.410156 L 236.371094 204.722656 L 239.460938 204.722656 L 241.789062 202.203125 C 241.792969 202.125 241.800781 202.046875 241.800781 201.96875 L 224.003906 201.96875 " fill-opacity="1" fill-rule="nonzero"/><path fill="#d1171c" d="M 232.902344 211.085938 C 235.820312 211.085938 238.40625 209.671875 240.027344 207.5 C 239.304688 206.371094 238.019531 205.648438 236.582031 205.71875 C 235.601562 205.765625 234.726562 206.179688 234.074219 206.8125 C 233.554688 206.59375 232.980469 206.476562 232.375 206.507812 C 230.417969 206.601562 228.875 208.136719 228.710938 210.035156 C 229.960938 210.703125 231.386719 211.085938 232.902344 211.085938 " fill-opacity="1" fill-rule="nonzero"/><path fill="#b20b1f" d="M 234.074219 206.8125 C 233.671875 206.644531 233.238281 206.539062 232.785156 206.511719 C 232.9375 206.917969 233.203125 207.460938 233.671875 208.140625 C 234.738281 209.675781 235.425781 209.738281 235.425781 209.738281 C 235.425781 209.738281 234.683594 207.289062 235.003906 206.144531 C 234.660156 206.324219 234.347656 206.546875 234.074219 206.8125 " fill-opacity="1" fill-rule="nonzero"/></svg>